<?xml version="1.0" encoding="UTF-8" standalone="no"?>
<svg
   xmlns:dc="http://purl.org/dc/elements/1.1/"
   xmlns:cc="http://creativecommons.org/ns#"
   xmlns:rdf="http://www.w3.org/1999/02/22-rdf-syntax-ns#"
   xmlns:svg="http://www.w3.org/2000/svg"
   xmlns="http://www.w3.org/2000/svg"
   xmlns:sodipodi="http://sodipodi.sourceforge.net/DTD/sodipodi-0.dtd"
   xmlns:inkscape="http://www.inkscape.org/namespaces/inkscape"
   version="1.1"
   x="0px"
   y="0px"
   viewBox="0 0 80 40"
   enable-background="new 0 0 100 100"
   xml:space="preserve"
   id="svg2"
   inkscape:version="0.91 r13725"
   sodipodi:docname="leafrunner.svg"
   width="80"
   height="40"><metadata
     id="metadata40"><rdf:RDF><cc:Work
         rdf:about=""><dc:format>image/svg+xml</dc:format><dc:type
           rdf:resource="http://purl.org/dc/dcmitype/StillImage" /><dc:title></dc:title></cc:Work></rdf:RDF></metadata><defs
     id="defs38" /><sodipodi:namedview
     pagecolor="#ffffff"
     bordercolor="#666666"
     borderopacity="1"
     objecttolerance="10"
     gridtolerance="10"
     guidetolerance="10"
     inkscape:pageopacity="0"
     inkscape:pageshadow="2"
     inkscape:window-width="1525"
     inkscape:window-height="1001"
     id="namedview36"
     showgrid="false"
     inkscape:zoom="6.305625"
     inkscape:cx="50"
     inkscape:cy="62.5"
     inkscape:window-x="0"
     inkscape:window-y="0"
     inkscape:window-maximized="0"
     inkscape:current-layer="svg2" /><g
     id="g4"
     transform="translate(0,-85)"><path
       d="m 93.638,-135.858 c -0.452,0.169 -2.113,0.84 -2.54,1.061 -0.084,0.044 -0.174,0.078 -0.258,0.119 0.079,-0.925 0.363,-1.866 0.589,-2.721 0.503,-1.906 1.126,-3.778 1.689,-5.666 1.169,-3.916 2.384,-8.192 1.668,-12.307 -0.052,-0.303 -0.08,-1.067 -0.3,-1.435 0.081,-0.486 0.062,-0.885 -0.213,-0.673 l -1.332,0.667 c -2.985,2.3 -7.187,4.545 -10.77,5.61 -2.212,0.658 -4.538,1.232 -6.858,1.517 0.172,-0.848 0.646,-1.831 0.819,-2.575 0.121,-0.535 -1.293,0.27 -1.73,0.556 -2.806,1.843 -6.522,2.706 -9.705,3.689 -1.977,0.609 -3.866,1.15 -5.735,1.955 0.374,-0.817 1.062,-2.879 1.081,-3.204 0.037,-0.538 -2.188,0.199 -2.605,0.544 -2.102,1.746 -4.517,3.27 -6.867,4.65 -1.128,0.661 -2.193,1.231 -3.377,1.788 -0.245,0.114 -0.565,0.211 -0.914,0.292 -0.002,-0.803 -0.202,-2.638 -0.243,-2.971 -0.069,-0.562 -1.793,0.2 -2.274,0.553 -4.507,3.308 -9.153,7.46 -11.905,12.468 0.12,-0.783 0.154,-1.644 0.088,-2.086 -0.077,-0.508 -1.739,0.632 -2.219,0.888 -10.807,5.75 -14.188,17.057 -14.7,28.666 -0.225,5.096 0.204,10.224 1.08,15.242 0.473,2.702 1.338,6.871 2.524,9.425 -4.491,3.677 -9.024,7.26 -13.536,10.675 -0.394,0.298 0.443,1.555 2.661,0 0.708,0.353 -0.098,0.903 0.408,1.592 4.003,-3.703 8.144,-7.176 12.289,-10.616 0.087,0.233 0.252,0.468 0.542,0.667 2.301,1.578 5.33,2.382 7.981,3.113 4.677,1.289 9.514,2.021 14.365,2.125 11.905,0.25 23.359,-3.976 30.298,-14.046 0.237,-0.344 0.46,-0.696 0.686,-1.05 0.472,-0.747 0.649,-1.441 0.032,-1.519 -0.535,-0.068 -2.766,0.693 -3.401,0.74 2.674,-1.89 4.733,-4.53 6.881,-6.997 2.383,-2.742 4.585,-5.637 6.72,-8.573 0.533,-0.73 0.911,-1.625 0.343,-1.713 -0.9,-0.142 -2.232,0.401 -3.408,0.826 0.884,-1.794 1.961,-3.518 2.985,-5.213 1.484,-2.449 2.424,-4.176 4.251,-6.384 0.65,-0.788 0.998,-2.676 0.388,-2.608 -0.218,0.023 -1.128,0.185 -1.724,0.3 0.757,-1.815 1.374,-3.714 2.096,-5.524 1.339,-3.353 2.708,-6.81 4.708,-9.834 0.606,-0.916 0.181,-2.294 -0.558,-2.013 z m -73.624,54.909 c -0.136,-0.42 -0.248,-0.856 -0.36,-1.247 -0.479,-1.645 -0.847,-3.319 -1.17,-5.002 -0.944,-4.896 -1.387,-9.901 -1.303,-14.888 0.192,-11.558 2.832,-23.979 13.258,-30.02 0.131,1.429 0.32,3.384 0.84,4.075 0.181,0.24 0.524,-1.853 0.771,-2.404 2.319,-5.165 7.149,-8.716 11.725,-12.042 -0.044,1.065 -0.095,2.04 0.347,2.482 0.72,0.72 3.271,-0.74 4.626,-1.353 2.882,-1.303 5.715,-3 8.304,-4.911 -0.128,0.852 -0.139,1.586 0.329,1.878 0.29,0.182 1.51,-0.325 1.894,-0.514 2.2,-1.087 4.836,-1.52 7.17,-2.232 2.612,-0.796 5,-1.407 7.323,-2.615 -0.107,0.291 -0.179,0.591 -0.136,1.074 0.047,0.565 0.883,-0.098 1.37,-0.13 2.729,-0.185 5.168,-0.836 7.795,-1.567 3.123,-0.869 7.531,-3.295 9.971,-4.568 -6.258,8.341 -13.071,17.444 -20.055,25.132 -0.946,-1.944 -1.16,-4.351 -1.221,-6.569 2.386,-1.403 4.015,-3.409 4.722,-6.107 -0.133,0.502 -0.422,0.965 -0.553,1.468 0.135,-0.519 -0.475,0.539 -0.589,0.685 -0.315,0.398 -0.691,0.746 -1.064,1.088 -0.69,0.631 -1.483,1.156 -2.302,1.602 -0.126,0.069 -0.188,0.252 -0.232,0.466 -0.003,-0.21 -0.007,-0.425 -0.01,-0.629 -0.04,-3.195 0.213,-6.957 2.045,-9.689 -0.286,0.424 -0.821,0.682 -1.111,1.11 -1.773,2.647 -2.007,6.189 -2.044,9.28 -0.03,2.688 0.046,6.007 1.286,8.484 -3.55,3.822 -7.249,7.523 -11.024,11.153 -2.241,-3.287 -3.375,-7.182 -3.886,-11.114 2.208,-1.392 3.721,-3.336 4.396,-5.911 -0.133,0.502 -0.423,0.964 -0.556,1.47 0.137,-0.519 -0.473,0.538 -0.586,0.684 -0.315,0.398 -0.691,0.746 -1.065,1.088 -0.69,0.632 -1.483,1.155 -2.302,1.603 -0.005,0.002 -0.008,0.009 -0.013,0.013 -0.047,-0.478 -0.095,-0.954 -0.126,-1.429 -0.284,-4.196 0.042,-8.929 2.088,-12.692 -0.236,0.438 -0.869,0.667 -1.11,1.111 -2.063,3.794 -2.318,8.467 -2.087,12.692 0.103,1.896 0.364,3.822 0.804,5.707 -0.523,-0.385 -1.023,-0.797 -1.477,-1.251 -0.452,-0.457 -0.912,-0.923 -1.279,-1.446 -0.136,-0.192 -0.809,-1.565 -0.698,-0.904 -0.108,-0.645 -0.436,-1.247 -0.543,-1.888 0.514,3.042 2.064,5.457 4.491,7.317 0.654,2.141 1.572,4.188 2.818,6.026 -3.715,3.546 -7.491,7.033 -11.274,10.503 -3.716,-5.176 -5.219,-11.516 -5.359,-17.828 -0.028,-1.263 -10e-4,-2.555 0.082,-3.854 2.109,-1.144 3.498,-2.805 4.037,-5.048 -0.108,0.453 -0.386,0.859 -0.495,1.313 0.113,-0.466 -0.465,0.465 -0.577,0.592 -0.307,0.346 -0.68,0.643 -1.05,0.934 -0.546,0.428 -1.174,0.776 -1.822,1.088 0.348,-3.86 1.237,-7.739 2.963,-11.107 -0.227,0.439 -0.88,0.664 -1.11,1.11 -2.428,4.739 -3.153,10.396 -3.143,15.657 0.005,2.633 0.282,5.291 0.852,7.875 -0.21,-0.189 -0.429,-0.37 -0.621,-0.577 -0.345,-0.371 -0.692,-0.748 -0.974,-1.171 -0.103,-0.154 -0.625,-1.256 -0.532,-0.728 -0.064,-0.363 -0.207,-0.712 -0.319,-1.065 0.44,1.977 1.381,3.636 2.802,4.977 0.854,3.176 2.201,6.197 4.119,8.883 -1.945,1.784 -3.889,3.565 -5.822,5.351 -0.715,0.661 -1.448,1.322 -2.173,1.984 -2.373,-4.777 -3.833,-10.044 -4.676,-15.292 -0.866,-5.4 -1.131,-11.476 1.17,-16.57 -0.201,0.441 -0.907,0.66 -1.109,1.109 -1.468,3.249 -1.873,6.857 -1.766,10.447 -0.623,-0.44 -1.223,-0.917 -1.742,-1.474 -0.345,-0.372 -0.691,-0.748 -0.974,-1.17 -0.103,-0.156 -0.625,-1.257 -0.532,-0.729 -0.091,-0.513 -0.344,-0.998 -0.434,-1.509 0.454,2.553 1.743,4.576 3.74,6.125 0.102,1.653 0.296,3.293 0.537,4.882 0.403,2.64 0.988,5.294 1.769,7.888 -0.696,-0.475 -1.367,-0.981 -1.954,-1.568 -0.453,-0.457 -2.687,-3.144 -3.055,-3.667 -0.129,-0.187 -0.75,-1.446 -0.701,-0.952 1.171,2.968 3.82,6.295 6.337,8.129 0.639,1.852 1.388,3.656 2.248,5.394 -2.797,2.539 -5.651,5.069 -8.548,7.581 -1.369,-1.969 -2.499,-4.145 -3.449,-6.376 1.071,-2.18 1.357,-4.48 0.722,-6.905 0.129,0.5 0.104,1.047 0.236,1.553 -0.136,-0.521 -0.147,0.701 -0.177,0.883 -0.08,0.502 -0.237,0.99 -0.395,1.471 -0.214,0.651 -0.52,1.269 -0.854,1.87 -0.363,-0.917 -0.7,-1.837 -1.01,-2.753 -1.509,-4.468 -2.391,-8.921 0.051,-13.264 -0.245,0.437 -0.861,0.669 -1.109,1.113 -2.398,4.261 -1.566,8.489 -0.168,12.899 1.148,3.627 2.781,7.357 4.977,10.532 -2.701,2.326 -5.437,4.627 -8.189,6.898 z m 68.481,-43.881 c -1.028,2.544 -2.196,5.107 -3.44,7.56 -0.175,0.344 -0.689,1.156 -0.351,1.285 0.574,0.22 1.067,0.214 1.539,0.112 -1.048,1.802 -1.855,3.791 -2.926,5.55 -1.296,2.125 -3.623,5.716 -4.577,8.023 -0.36,0.867 0.646,-0.41 1.473,-0.525 0.656,-0.092 1.386,-0.324 2.102,-0.455 -1.918,2.647 -3.903,5.397 -6.024,7.836 -2.072,2.384 -3.937,4.913 -6.5,6.715 -0.068,-0.01 -0.099,-0.002 -0.063,0.042 -0.274,0.191 -0.552,0.384 -0.845,0.557 -0.518,0.31 -1.229,0.864 -0.877,1.123 1.224,0.903 2.635,0.312 4.051,0.076 -3.247,4.538 -8.019,7.566 -13.189,9.826 -4.969,2.171 -10.434,2.929 -15.82,2.88 -4.639,-0.037 -9.315,-0.767 -13.787,-1.978 -2.507,-0.68 -5.312,-1.421 -7.373,-2.834 -0.083,-0.057 -0.157,-0.077 -0.234,-0.114 2.562,-2.124 5.121,-4.244 7.645,-6.408 2.083,1.562 4.635,2.693 7.169,3.576 1.284,2.479 3.216,4.256 5.893,5.186 -0.521,-0.183 -0.985,-0.527 -1.51,-0.709 0.539,0.186 -0.529,-0.551 -0.673,-0.685 -0.396,-0.369 -0.732,-0.799 -1.061,-1.226 -0.499,-0.645 -0.9,-1.364 -1.256,-2.102 0.422,0.135 0.84,0.264 1.253,0.388 5.266,1.573 11.14,2.02 16.233,-0.368 0.448,-0.212 0.668,-0.905 1.109,-1.111 -5.127,2.404 -10.933,1.9 -16.233,0.368 -3.28,-0.947 -6.93,-2.296 -9.723,-4.363 0.591,-0.511 1.183,-1.021 1.769,-1.539 2.458,-2.173 4.901,-4.37 7.33,-6.577 1.819,0.899 3.719,1.639 5.667,2.231 1.628,2.643 4.333,5.038 7.224,6.144 0.61,0.093 -0.727,-0.568 -0.916,-0.701 -0.522,-0.367 -0.988,-0.825 -1.446,-1.281 -0.812,-0.811 -2.324,-2.578 -2.991,-3.64 2.249,0.571 4.542,0.971 6.833,1.199 1.116,0.111 2.265,0.176 3.423,0.184 1.75,2.188 4.937,3.938 7.584,4.409 -0.512,-0.091 -0.995,-0.34 -1.506,-0.433 0.525,0.094 -0.576,-0.43 -0.729,-0.534 -0.424,-0.28 -2.131,-1.073 -2.502,-1.418 -0.646,-0.603 -1.198,-1.307 -1.688,-2.04 3.708,-0.117 7.435,-0.932 10.429,-3.095 0.421,-0.306 0.694,-0.811 1.109,-1.112 -4.153,3.001 -9.604,3.347 -14.548,2.969 -5.058,-0.384 -10.198,-1.712 -14.765,-3.959 2.805,-2.561 5.584,-5.149 8.346,-7.759 4.257,1.707 8.647,3.213 13.242,3.554 4.749,0.357 7.609,-0.269 11.981,-2.015 0.447,-0.184 2.421,-1.584 2.863,-1.762 -4.409,1.765 -8.955,2.961 -13.734,2.669 -4.562,-0.28 -8.978,-1.833 -13.207,-3.539 3.695,-3.506 7.35,-7.052 10.958,-10.647 3.449,1.803 7.44,2.344 11.328,1.834 1.383,1.861 3.219,3.077 5.568,3.514 -0.432,-0.08 -0.844,-0.287 -1.278,-0.368 0.445,0.083 -0.493,-0.35 -0.625,-0.435 -0.36,-0.23 -0.683,-0.513 -1,-0.792 -0.59,-0.519 -1.096,-1.122 -1.54,-1.751 -0.115,-0.165 -0.492,-0.168 -0.813,-0.205 3.709,-0.541 7.301,-2.031 10.192,-4.295 0.411,-0.321 0.702,-0.791 1.109,-1.11 -5.994,4.694 -14.984,6.07 -21.822,2.503 0.124,-0.125 0.252,-0.247 0.377,-0.372 3.59,-3.605 6.898,-7.419 10.158,-11.287 1.774,0.412 3.802,0.041 5.503,-0.308 2.144,1.359 4.495,1.887 7.057,1.437 -0.511,0.09 -1.052,0.019 -1.565,0.109 0.529,-0.093 -0.687,-0.206 -0.866,-0.25 -0.492,-0.121 -0.966,-0.318 -1.431,-0.515 -0.681,-0.289 -1.316,-0.676 -1.925,-1.096 2.598,-0.657 5.132,-1.665 7.447,-2.987 0.441,-0.251 0.673,-0.863 1.109,-1.109 -2.567,1.466 -5.353,2.501 -8.224,3.193 -1.852,0.444 -4.187,0.897 -6.144,0.384 2.211,-2.637 4.407,-5.291 6.664,-7.915 4.577,-5.327 9.565,-11.419 13.177,-17.494 0.554,5.026 -1.6,10.284 -3.008,14.991 -0.549,1.833 -2.335,4.629 -2.226,6.563 0.056,0.968 2.462,-0.553 3.375,-0.434 0.123,0.016 0.22,0.032 0.315,0.049 -1.561,2.695 -2.477,5.727 -3.643,8.613 z M 69.98,-87.484 c -0.003,0.168 -0.038,0.137 -0.054,0.036 0.02,-0.012 0.036,-0.025 0.054,-0.036 z"
       id="path6"
       inkscape:connector-curvature="0" /><path
       d="m 52.507,-86.339 c 0.447,0.169 0.896,0.306 1.348,0.409 -0.448,-0.138 -0.887,-0.326 -1.348,-0.409 z"
       id="path8"
       inkscape:connector-curvature="0" /><path
       d="m 52.507,-86.339 c -0.006,-0.003 -0.012,-0.005 -0.019,-0.007 -0.007,-10e-4 -0.007,0 -0.015,-10e-4 0.012,0.002 0.023,0.006 0.034,0.008 z"
       id="path10"
       inkscape:connector-curvature="0" /><path
       d="m 29.315,-110.038 c -0.124,-0.604 -0.412,-1.173 -0.515,-1.778 0.096,0.565 0.278,1.164 0.515,1.778 z"
       id="path12"
       inkscape:connector-curvature="0" /><path
       d="m 29.343,-109.925 c -0.004,-0.025 0,-0.029 -0.002,-0.05 -0.009,-0.021 -0.017,-0.043 -0.025,-0.063 0.007,0.037 0.021,0.074 0.027,0.113 z"
       id="path14"
       inkscape:connector-curvature="0" /></g><g
     id="g16"
     style="fill:#d38d5f;stroke:#000000;stroke-opacity:1"
     transform="matrix(0.39382949,0,0,0.39382949,0.96975307,-0.13731974)"><path
       d="m 93.282,30.122 c -0.724,-0.625 -1.552,-1.081 -2.427,-1.433 -0.924,-0.37 -2.507,-0.467 -3.118,-1.334 -0.296,-0.889 0.369,-2.11 0.659,-2.861 0.587,-1.517 1.234,-3.008 1.763,-4.554 0.88,-2.585 1.797,-6.161 -0.797,-8.435 C 87.949,10.267 85.883,9.393 84.07,9.39 82.717,9.384 81.706,9.889 80.603,10.515 79.626,11.068 77.815,11.554 76.876,10.479 75.332,8.702 74.241,6.685 72.092,5.52 70.528,4.669 69.317,4.909 68.068,5.894 c -1.796,1.417 -2.93,3.423 -4.376,5.151 -0.713,0.849 -1.532,1.67 -2.594,2.096 -1.539,0.617 -2.475,-0.792 -3.302,-1.951 -1.418,-1.989 -2.96,-3.201 -5.433,-3.298 -3.06,-0.116 -4.622,0.465 -6.071,2.906 -1.483,2.501 -2.332,5.474 -2.628,8.391 -0.137,1.364 -0.175,2.771 -0.472,4.098 -0.341,1.523 -0.941,2.929 -1.121,4.504 -0.164,1.443 -0.12,3.137 -0.171,4.598 -0.051,1.496 -0.24,3 -0.784,4.362 -0.263,0.651 -0.957,1.8 -1.816,1.78 -0.136,-0.107 -0.294,-0.246 -0.425,-0.366 -2.195,-2.014 -4.062,-4.329 -6.752,-5.714 -1.167,-0.603 -2.476,-0.959 -3.681,-0.563 -1.635,0.538 -2.573,2.273 -3.24,3.717 -1.469,3.184 0.27,6.773 1.67,9.944 1.358,3.073 2.725,7.642 1.205,10.746 -0.414,0.846 -1.114,1.492 -1.897,2.005 -1.107,-1.307 -2.407,-2.484 -4.012,-3.086 -1.589,-0.597 -2.731,0.075 -3.591,1.279 -1.108,1.554 -1.652,3.562 -2.333,5.354 -0.801,2.105 -1.517,4.252 -2.12,6.438 -1.022,3.716 -2.44,8.939 -0.215,12.793 0.159,0.275 0.352,0.517 0.562,0.737 -1.55,1.547 -3.039,3.019 -4.415,4.355 -2.313,2.245 -5.162,5.201 -5.052,8.157 1.499,-1.589 3.771,1.136 3.606,0.602 -0.998,-3.286 2.919,-7.366 5.522,-9.934 0.501,-0.493 1.204,-1.202 2.043,-2.054 1.517,0.626 3.351,0.726 4.754,0.765 3.914,0.109 7.815,-0.401 11.549,-1.212 3.237,-0.704 5.066,-0.188 7.545,-2.34 0.78,-0.678 1.656,-1.55 1.563,-2.657 -0.125,-1.5 -1.423,-2.295 -1.961,-3.576 -0.565,-1.349 3.14,-2.492 4.055,-2.601 1.696,-0.204 3.214,0.492 4.924,0.784 4.001,0.683 8.094,1.825 12.113,1.743 1.228,-0.025 2.659,-0.241 3.372,-1.264 1,-1.433 -0.163,-3.298 -1.516,-4.216 -1.253,-0.846 -2.817,-1.075 -4.019,-1.984 -1.173,-0.892 -1.943,-2.265 -1.929,-3.662 0.019,-2.004 0.79,-2.469 2.649,-2.8 2.824,-0.503 8.476,-1.168 11.368,-0.925 3.887,0.322 7.032,0.304 10.891,0.141 2.591,-0.107 7.495,-1.691 9.089,-3.857 1.662,-2.258 -0.418,-6.005 -2.581,-7.5 -0.899,-0.62 -1.889,-1.103 -2.86,-1.58 -0.892,-0.44 -2.229,-0.883 -2.742,-1.812 -1.126,-2.038 2.713,-3.498 3.907,-4.037 1.526,-0.688 2.985,-1.349 4.396,-2.224 1.519,-0.942 3.308,-1.924 4.053,-3.624 0.635,-1.441 -0.304,-3.332 -1.513,-4.381 z m -2.381,5.7 c -1.826,1.352 -3.815,2.359 -5.909,3.276 -1.557,0.685 -4.318,1.625 -4.468,3.631 -0.124,1.646 2.434,2.896 3.638,3.537 0.985,0.523 2.013,0.961 2.98,1.526 0.929,0.542 1.931,2.695 2.332,3.632 1.219,2.829 -1.275,4.672 -3.919,5.55 -3.274,1.089 -7.074,1.494 -10.579,1.311 -3.73,-0.194 -9.843,0.638 -13.572,0.443 -3.067,-0.157 -5.451,-1.149 -6.432,2.227 -0.62,2.137 1.073,4.196 2.782,5.489 1.1,0.834 2.326,1.362 3.586,1.861 1.257,0.499 1.54,1.825 1.165,2.888 -0.436,1.237 -2.037,1.452 -3.227,1.518 -1.938,0.106 -3.961,-0.257 -5.903,-0.591 -3.746,-0.643 -7.419,-2.214 -11.169,-1.945 -0.947,0.068 -1.734,0.478 -2.55,0.881 -0.64,0.312 -1.611,0.739 -1.826,1.481 -0.124,0.428 0.244,0.897 0.504,1.234 0.533,0.687 1.037,1.306 1.327,2.126 0.993,2.793 -1.152,2.951 -3.099,3.757 -3.599,1.487 -7.609,2.223 -11.557,2.655 -1.87,0.206 -3.768,0.318 -5.673,0.264 -0.819,-0.021 -1.723,-0.054 -2.587,-0.213 2.194,-2.235 5.15,-5.277 8.056,-8.265 0.663,0.116 1.973,0.354 3.006,0.565 0.248,0.456 1.045,1.174 1.741,1.747 -0.786,-0.764 -1.319,-1.575 -1.38,-1.672 0.24,0.053 0.457,0.102 0.631,0.146 5.522,1.4 8.89,0.781 8.89,0.781 0,0 -1.123,0.206 -3.482,0.014 -2.033,-0.17 -7.598,-1.516 -9.108,-1.89 3.854,-3.962 7.56,-7.768 9.186,-9.368 0.146,-0.144 0.284,-0.278 0.427,-0.419 1.972,-1.06 4.568,-0.497 6.898,0.173 0.262,0.614 0.939,1.53 1.546,2.29 C 42.542,65.55 42.143,64.64 42,64.286 c 0.311,0.091 0.617,0.181 0.913,0.27 2.527,0.75 4.46,1.28 5.44,1.754 0.981,0.476 2.785,1.362 2.814,1.384 -2.848,-1.877 -6.251,-3.086 -9.508,-3.821 L 41.5,63.729 c -0.002,0.033 0.008,0.073 0.014,0.11 -0.096,-0.021 -0.191,-0.045 -0.287,-0.064 -1.842,-0.396 -3.938,-0.984 -5.689,-0.58 2.837,-2.757 5.054,-4.78 7.011,-6.494 2.395,0.643 2.481,0.457 5.648,1.652 0.638,0.242 4.123,2.426 4.166,2.469 -1.527,-1.562 -4.076,-2.641 -6.469,-3.432 0.281,-0.177 1.01,-0.636 1.348,-0.816 1.312,-0.707 2.944,-0.24 2.944,-0.24 0,0 -0.826,-0.4 -2.06,-0.186 -1.209,0.211 -2.358,1.124 -2.358,1.124 l 0.002,0.079 c -1.056,-0.344 -2.07,-0.636 -2.954,-0.884 2.84,-2.477 5.175,-4.351 8.167,-6.996 3.84,-0.966 7.721,-0.941 11.621,-0.696 0.509,2.863 5.022,5.434 5.022,5.434 -4.286,-3.103 -4.614,-4.983 -4.63,-5.407 1.45,0.097 2.904,0.218 4.359,0.326 0.241,0.389 1.215,1.896 2.233,2.686 1.175,0.915 4.76,3.296 4.76,3.296 0,0 -2.548,-1.892 -3.531,-2.575 -2.439,-1.692 -3.128,-3.224 -3.197,-3.388 0.728,0.053 1.456,0.103 2.183,0.143 0.447,0.023 0.895,0.06 1.341,0.092 -0.001,0.002 -0.004,0.005 -0.005,0.007 0.002,-0.004 0.029,-0.003 0.042,-0.005 5.242,0.386 10.559,1.321 15.78,2.526 0.098,0.024 0.478,-0.022 0.42,-0.037 -5.25,-1.211 -10.456,-2.135 -15.697,-2.688 0.621,-0.886 1.777,-1.814 2.886,-2.276 -1.417,0.452 -2.589,1.327 -3.25,2.24 -0.802,-0.082 -1.602,-0.181 -2.405,-0.243 -3.081,-0.24 -5.889,-0.525 -9.01,-0.701 1.269,-1.924 2.27,-3 4.686,-3.095 0.453,-0.018 1.16,-0.023 1.869,-0.03 -3.953,-0.428 -5.549,0.777 -7.047,3.093 0.001,-0.001 0.003,0.004 0.004,0.004 -0.203,-0.011 -0.393,-0.025 -0.599,-0.035 -2.639,-0.122 -4.815,0.191 -7.269,0.828 1.916,-1.709 4.116,-3.753 6.884,-6.465 2.335,-2.289 4.797,-5.85 8.005,-9.104 0.22,-0.223 0.444,-0.447 0.665,-0.671 0.949,0.164 2.945,0.868 3.877,1.787 1.004,0.992 4.946,4.224 4.946,4.224 0,0 -2.371,-2.258 -4.328,-4.023 -1.594,-1.438 -3.532,-2.087 -4.203,-2.28 0.279,-0.282 0.558,-0.564 0.839,-0.847 1.867,-0.373 4.229,-0.229 5.936,0.13 1.528,0.32 3.056,0.684 4.596,0.881 4.038,0.516 8.28,0.274 12.271,0.072 0.342,-0.017 0.023,-0.073 -0.137,-0.064 -4.832,0.243 -9.562,0.103 -14.4,-0.815 0.457,-0.285 1.119,-0.694 1.465,-0.881 1.748,-0.943 3.922,-0.32 3.922,-0.32 0,0 -1.099,-0.534 -2.743,-0.245 -1.318,0.23 -2.572,1.079 -2.985,1.381 -0.248,-0.05 -0.494,-0.09 -0.742,-0.144 -1.886,-0.404 -4.276,-0.925 -6.38,-0.794 2.393,-2.39 4.803,-4.756 7.068,-6.957 1.835,-1.004 3.182,-1.399 5.25,-0.458 0.412,0.188 1.045,0.5 1.678,0.812 -2.55,-1.653 -4.308,-1.818 -6.073,-1.183 1.353,-1.31 2.629,-2.538 3.813,-3.672 l -0.032,0.094 c 0,0 1.617,-0.368 2.248,-0.465 1.97,-0.302 3.8,1.014 3.8,1.014 0,0 -0.851,-0.871 -2.497,-1.151 -1.342,-0.229 -2.841,0.168 -3.307,0.308 3.633,-3.475 6.246,-5.915 6.614,-6.242 0.23,-0.206 -2.16,1.54 -3.426,2.676 -0.45,0.403 -2.047,1.778 -4.233,3.692 -0.076,-0.932 -0.249,-3.426 0.065,-3.913 0.391,-0.603 0.931,-2.132 0.931,-2.132 0,0 -1.039,1.876 -1.223,2.519 -0.323,1.145 -0.106,3.128 -0.026,3.748 -3.871,3.39 -9.473,8.372 -14.015,12.789 0.712,-3.462 0.78,-7.089 1.622,-10.521 0.083,-0.343 0.189,-0.674 0.291,-1.008 0.613,-0.143 1.709,-0.847 2.6,-1.478 -1.212,0.716 -2.427,1.095 -2.427,1.095 l -0.087,0.085 c 1.121,-3.465 3.126,-6.532 4.502,-9.877 -0.008,0.02 -1.376,2.438 -1.419,2.539 -1.501,3.651 -2.748,4.417 -3.85,8.26 -1.075,3.744 -1.285,8.065 -2.208,11.911 -0.663,0.688 -1.312,1.394 -1.938,2.121 -0.18,-0.755 -0.915,-3.936 -0.825,-5.29 0.101,-1.543 0.437,-3.676 0.437,-3.676 0,0 -1.021,4.25 -0.813,4.946 0.208,0.697 0.736,4.504 0.736,4.504 l 0.115,-0.072 c -1.599,1.878 -3.148,3.806 -4.906,5.528 -0.953,0.934 -1.883,1.814 -2.798,2.664 -0.12,-2.633 0.044,-5.272 -0.031,-7.897 -0.036,-1.301 -0.14,-2.606 -0.273,-3.914 0.421,-0.516 0.911,-1.57 1.292,-2.483 -0.494,0.955 -1.084,1.729 -1.339,2.039 -0.136,-1.277 -0.296,-2.558 -0.453,-3.831 -0.164,-1.351 -0.435,-2.721 -0.65,-4.083 3.614,-2.649 3.862,-5.24 3.862,-5.24 -0.387,2.383 -3.524,4.555 -3.929,4.827 C 53.11,22.914 53.044,22.409 53,21.909 c -0.224,-2.496 0.379,-4.543 0.378,-5.39 -0.005,-0.846 -0.335,-2.139 -0.328,-2.107 0.255,1.107 -0.019,2.318 -0.159,3.388 -0.171,1.296 -0.403,2.594 -0.392,3.919 0.007,0.692 0.253,1.444 0.362,2.143 0.074,0.479 0.127,0.959 0.194,1.439 -0.146,-0.09 -1.091,-0.677 -1.595,-1.174 -0.548,-0.543 -1.271,-1.091 -1.694,-1.755 -0.422,-0.665 -1.336,-1.565 -1.336,-1.565 0,0 1.539,2.177 1.768,2.402 0.229,0.225 1.461,1.442 1.866,1.676 0.249,0.145 0.709,0.433 1.02,0.629 0.109,0.802 0.226,1.603 0.324,2.405 0.325,2.61 0.557,5.449 0.659,8.059 0.075,1.927 -0.012,3.888 -0.037,5.843 -0.426,-0.296 -1.454,-1.127 -2.893,-3.04 -1.062,-1.411 -1.961,-2.592 -2.584,-3.437 0.726,-0.766 1.222,-3.745 1.222,-3.745 -0.45,1.924 -1.266,3.321 -1.266,3.321 l -0.065,0.275 c -0.441,-0.602 -0.727,-1.015 -0.782,-1.158 -0.132,-0.35 -1.593,-2.996 -1.593,-2.996 0,0 1.264,2.566 2.321,4.384 l -0.014,0.062 c 0.012,-0.006 0.023,-0.019 0.035,-0.025 0.363,0.623 0.702,1.156 0.954,1.461 0.985,1.191 3.026,3.863 3.453,4.285 0.331,0.324 0.945,0.867 1.207,1.097 -0.003,0.76 0.019,1.517 0.058,2.273 -5.739,5.261 -10.853,9.135 -16.526,14.28 -0.115,-1.596 -0.431,-3.187 -0.7,-4.785 -0.14,-0.823 -0.268,-1.506 -0.387,-2.171 l 0.08,0.194 c 0,0 0.749,-4.991 1.367,-6.412 0.62,-1.419 1.66,-3.32 1.66,-3.32 0,0 -2.403,3.67 -2.445,4.395 -0.031,0.563 -0.619,2.859 -0.879,3.855 -0.073,-0.475 -0.142,-0.973 -0.207,-1.538 -0.412,-3.601 -0.875,-6.529 -3.077,-9.854 -0.079,-0.119 -1.172,-1.104 -1.215,-1.148 2.082,2.135 2.995,4.818 3.503,7.555 -0.325,-0.142 -1.534,-0.669 -2.023,-0.92 -1.771,-0.907 -2.253,-2.789 -2.253,-2.789 0,0 0.035,1.043 1.126,2.148 1.067,1.08 2.99,1.711 2.99,1.711 l 0.171,-0.08 c 0.16,0.875 0.281,1.752 0.385,2.619 0.21,1.772 0.372,3.541 0.64,5.312 0.281,1.859 0.565,3.881 0.631,5.805 -1.166,1.069 -2.355,2.19 -3.582,3.398 -2.274,2.237 -4.857,4.838 -7.542,7.553 -0.219,-1.042 -0.85,-4.128 -0.991,-5.623 -0.133,-1.391 -0.751,-4.847 -0.751,-4.847 0,0 0.318,6.688 1.397,10.818 -1.266,1.281 -2.551,2.583 -3.838,3.886 -0.361,-0.972 -0.853,-2.411 -0.939,-3.257 -0.106,-1.044 -0.12,-4.39 -0.12,-4.39 -0.176,1.126 -0.829,3.207 0.621,8.092 -2.023,2.047 -4.036,4.081 -5.965,6.012 -0.022,-0.054 -0.049,-0.107 -0.07,-0.162 -0.387,-0.982 -0.496,-2.045 -0.541,-3.061 -0.114,-2.502 0.399,-4.984 0.975,-7.343 0.56,-2.293 1.292,-4.529 2.095,-6.728 0.666,-1.825 1.294,-3.736 2.186,-5.447 0.495,-0.948 1.199,-1.968 2.329,-2.21 1.409,-0.303 2.664,1.816 3.374,2.774 0.209,0.282 1.268,1.111 1.634,0.912 7.354,-4.025 0.203,-13.589 -0.743,-19.609 -0.31,-1.963 0.4,-3.621 1.388,-5.178 0.758,-1.195 1.937,-2.311 3.532,-2.159 1.204,0.113 2.213,1.085 3.078,1.887 1.035,0.961 1.983,2.011 3.017,2.977 0.853,0.795 1.904,1.662 3.049,1.91 2.011,0.437 2.723,-2.703 2.944,-4.03 0.51,-3.037 0.033,-6.328 0.911,-9.284 0.831,-2.8 1.309,-5.304 1.71,-8.22 0.399,-2.893 1.321,-6.021 3.38,-8.084 1.093,-1.093 1.579,-0.653 3.138,-0.895 0.717,-0.109 3.313,1.027 3.738,1.624 1.241,1.736 3.17,3.582 5.389,3.688 2.15,0.101 3.728,-2.269 4.8,-3.706 1.199,-1.604 2.397,-3.477 4.26,-4.409 1.997,-1.001 3.374,2.139 4.456,3.466 1.228,1.512 3.384,2.626 5.277,2.445 1.124,-0.107 1.979,-0.78 2.938,-1.249 1.278,-0.627 2.815,-0.568 4.219,-0.019 1.282,0.502 1.59,2.259 1.625,3.385 0.056,1.705 -0.493,3.385 -1.033,4.932 -0.526,1.514 -1.177,2.979 -1.747,4.475 -0.283,0.742 -0.851,1.882 -0.529,2.746 0.01,0.028 0.039,0.055 0.058,0.083 0.004,0.008 -0.003,0.01 0.003,0.021 0.552,0.893 1.455,1.481 2.382,1.934 1.11,0.543 3.101,0.619 3.882,1.62 1.83,2.346 0.435,4.288 -1.417,5.659 z"
       id="path18"
       style="fill:#ac9d93;fill-opacity:1;stroke:none;stroke-opacity:1"
       inkscape:connector-curvature="0" /><path
       d="m 75.839,46.608 c -0.386,-0.003 -0.821,0.114 -1.267,0.299 0.51,-0.162 1.053,-0.258 1.607,-0.293 -0.124,-0.003 -0.241,-0.005 -0.34,-0.006 z"
       id="path20"
       style="fill:#d38d5f;stroke:none;stroke-opacity:1"
       inkscape:connector-curvature="0" /><path
       d="m 76.18,46.614 c 0.365,0.009 0.821,0.026 1.277,0.042 C 77.024,46.59 76.6,46.589 76.18,46.614 Z"
       id="path22"
       style="fill:#d38d5f;stroke:none;stroke-opacity:1"
       inkscape:connector-curvature="0" /><path
       d="m 70.186,19.261 c 0.496,-0.292 0.99,-0.635 1.4,-1.04 0,0 -0.622,0.49 -1.4,1.04 z"
       id="path24"
       style="fill:#d38d5f;stroke:none;stroke-opacity:1"
       inkscape:connector-curvature="0" /><path
       d="m 55.692,29.704 c 0.263,-0.507 0.498,-1.056 0.628,-1.613 0,0 -0.262,0.74 -0.628,1.613 z"
       id="path26"
       style="fill:#d38d5f;stroke:none;stroke-opacity:1"
       inkscape:connector-curvature="0" /><path
       d="m 43.158,66.464 c 0.319,0.475 0.689,0.944 1.119,1.331 0,0 -0.526,-0.59 -1.119,-1.331 z"
       id="path28"
       style="fill:#d38d5f;stroke:none;stroke-opacity:1"
       inkscape:connector-curvature="0" /><path
       d="m 29.55,76.408 c 0.341,0.331 0.724,0.651 1.139,0.893 0,0 -0.529,-0.391 -1.139,-0.893 z"
       id="path30"
       style="fill:#d38d5f;stroke:none;stroke-opacity:1"
       inkscape:connector-curvature="0" /></g><g
     transform="matrix(-0.39382949,0,0,0.39382949,78.731279,0.02126882)"
     style="fill:#d38d5f;stroke:#000000;stroke-opacity:1"
     id="g4178"><path
       inkscape:connector-curvature="0"
       style="fill:#ac9d93;fill-opacity:1;stroke:none;stroke-opacity:1"
       id="path4180"
       d="m 93.282,30.122 c -0.724,-0.625 -1.552,-1.081 -2.427,-1.433 -0.924,-0.37 -2.507,-0.467 -3.118,-1.334 -0.296,-0.889 0.369,-2.11 0.659,-2.861 0.587,-1.517 1.234,-3.008 1.763,-4.554 0.88,-2.585 1.797,-6.161 -0.797,-8.435 C 87.949,10.267 85.883,9.393 84.07,9.39 82.717,9.384 81.706,9.889 80.603,10.515 79.626,11.068 77.815,11.554 76.876,10.479 75.332,8.702 74.241,6.685 72.092,5.52 70.528,4.669 69.317,4.909 68.068,5.894 c -1.796,1.417 -2.93,3.423 -4.376,5.151 -0.713,0.849 -1.532,1.67 -2.594,2.096 -1.539,0.617 -2.475,-0.792 -3.302,-1.951 -1.418,-1.989 -2.96,-3.201 -5.433,-3.298 -3.06,-0.116 -4.622,0.465 -6.071,2.906 -1.483,2.501 -2.332,5.474 -2.628,8.391 -0.137,1.364 -0.175,2.771 -0.472,4.098 -0.341,1.523 -0.941,2.929 -1.121,4.504 -0.164,1.443 -0.12,3.137 -0.171,4.598 -0.051,1.496 -0.24,3 -0.784,4.362 -0.263,0.651 -0.957,1.8 -1.816,1.78 -0.136,-0.107 -0.294,-0.246 -0.425,-0.366 -2.195,-2.014 -4.062,-4.329 -6.752,-5.714 -1.167,-0.603 -2.476,-0.959 -3.681,-0.563 -1.635,0.538 -2.573,2.273 -3.24,3.717 -1.469,3.184 0.27,6.773 1.67,9.944 1.358,3.073 2.725,7.642 1.205,10.746 -0.414,0.846 -1.114,1.492 -1.897,2.005 -1.107,-1.307 -2.407,-2.484 -4.012,-3.086 -1.589,-0.597 -2.731,0.075 -3.591,1.279 -1.108,1.554 -1.652,3.562 -2.333,5.354 -0.801,2.105 -1.517,4.252 -2.12,6.438 -1.022,3.716 -2.44,8.939 -0.215,12.793 0.159,0.275 0.352,0.517 0.562,0.737 -1.55,1.547 -3.039,3.019 -4.415,4.355 -2.313,2.245 -5.162,5.201 -5.052,8.157 1.499,-1.589 3.771,1.136 3.606,0.602 -0.998,-3.286 2.919,-7.366 5.522,-9.934 0.501,-0.493 1.204,-1.202 2.043,-2.054 1.517,0.626 3.351,0.726 4.754,0.765 3.914,0.109 7.815,-0.401 11.549,-1.212 3.237,-0.704 5.066,-0.188 7.545,-2.34 0.78,-0.678 1.656,-1.55 1.563,-2.657 -0.125,-1.5 -1.423,-2.295 -1.961,-3.576 -0.565,-1.349 3.14,-2.492 4.055,-2.601 1.696,-0.204 3.214,0.492 4.924,0.784 4.001,0.683 8.094,1.825 12.113,1.743 1.228,-0.025 2.659,-0.241 3.372,-1.264 1,-1.433 -0.163,-3.298 -1.516,-4.216 -1.253,-0.846 -2.817,-1.075 -4.019,-1.984 -1.173,-0.892 -1.943,-2.265 -1.929,-3.662 0.019,-2.004 0.79,-2.469 2.649,-2.8 2.824,-0.503 8.476,-1.168 11.368,-0.925 3.887,0.322 7.032,0.304 10.891,0.141 2.591,-0.107 7.495,-1.691 9.089,-3.857 1.662,-2.258 -0.418,-6.005 -2.581,-7.5 -0.899,-0.62 -1.889,-1.103 -2.86,-1.58 -0.892,-0.44 -2.229,-0.883 -2.742,-1.812 -1.126,-2.038 2.713,-3.498 3.907,-4.037 1.526,-0.688 2.985,-1.349 4.396,-2.224 1.519,-0.942 3.308,-1.924 4.053,-3.624 0.635,-1.441 -0.304,-3.332 -1.513,-4.381 z m -2.381,5.7 c -1.826,1.352 -3.815,2.359 -5.909,3.276 -1.557,0.685 -4.318,1.625 -4.468,3.631 -0.124,1.646 2.434,2.896 3.638,3.537 0.985,0.523 2.013,0.961 2.98,1.526 0.929,0.542 1.931,2.695 2.332,3.632 1.219,2.829 -1.275,4.672 -3.919,5.55 -3.274,1.089 -7.074,1.494 -10.579,1.311 -3.73,-0.194 -9.843,0.638 -13.572,0.443 -3.067,-0.157 -5.451,-1.149 -6.432,2.227 -0.62,2.137 1.073,4.196 2.782,5.489 1.1,0.834 2.326,1.362 3.586,1.861 1.257,0.499 1.54,1.825 1.165,2.888 -0.436,1.237 -2.037,1.452 -3.227,1.518 -1.938,0.106 -3.961,-0.257 -5.903,-0.591 -3.746,-0.643 -7.419,-2.214 -11.169,-1.945 -0.947,0.068 -1.734,0.478 -2.55,0.881 -0.64,0.312 -1.611,0.739 -1.826,1.481 -0.124,0.428 0.244,0.897 0.504,1.234 0.533,0.687 1.037,1.306 1.327,2.126 0.993,2.793 -1.152,2.951 -3.099,3.757 -3.599,1.487 -7.609,2.223 -11.557,2.655 -1.87,0.206 -3.768,0.318 -5.673,0.264 -0.819,-0.021 -1.723,-0.054 -2.587,-0.213 2.194,-2.235 5.15,-5.277 8.056,-8.265 0.663,0.116 1.973,0.354 3.006,0.565 0.248,0.456 1.045,1.174 1.741,1.747 -0.786,-0.764 -1.319,-1.575 -1.38,-1.672 0.24,0.053 0.457,0.102 0.631,0.146 5.522,1.4 8.89,0.781 8.89,0.781 0,0 -1.123,0.206 -3.482,0.014 -2.033,-0.17 -7.598,-1.516 -9.108,-1.89 3.854,-3.962 7.56,-7.768 9.186,-9.368 0.146,-0.144 0.284,-0.278 0.427,-0.419 1.972,-1.06 4.568,-0.497 6.898,0.173 0.262,0.614 0.939,1.53 1.546,2.29 C 42.542,65.55 42.143,64.64 42,64.286 c 0.311,0.091 0.617,0.181 0.913,0.27 2.527,0.75 4.46,1.28 5.44,1.754 0.981,0.476 2.785,1.362 2.814,1.384 -2.848,-1.877 -6.251,-3.086 -9.508,-3.821 L 41.5,63.729 c -0.002,0.033 0.008,0.073 0.014,0.11 -0.096,-0.021 -0.191,-0.045 -0.287,-0.064 -1.842,-0.396 -3.938,-0.984 -5.689,-0.58 2.837,-2.757 5.054,-4.78 7.011,-6.494 2.395,0.643 2.481,0.457 5.648,1.652 0.638,0.242 4.123,2.426 4.166,2.469 -1.527,-1.562 -4.076,-2.641 -6.469,-3.432 0.281,-0.177 1.01,-0.636 1.348,-0.816 1.312,-0.707 2.944,-0.24 2.944,-0.24 0,0 -0.826,-0.4 -2.06,-0.186 -1.209,0.211 -2.358,1.124 -2.358,1.124 l 0.002,0.079 c -1.056,-0.344 -2.07,-0.636 -2.954,-0.884 2.84,-2.477 5.175,-4.351 8.167,-6.996 3.84,-0.966 7.721,-0.941 11.621,-0.696 0.509,2.863 5.022,5.434 5.022,5.434 -4.286,-3.103 -4.614,-4.983 -4.63,-5.407 1.45,0.097 2.904,0.218 4.359,0.326 0.241,0.389 1.215,1.896 2.233,2.686 1.175,0.915 4.76,3.296 4.76,3.296 0,0 -2.548,-1.892 -3.531,-2.575 -2.439,-1.692 -3.128,-3.224 -3.197,-3.388 0.728,0.053 1.456,0.103 2.183,0.143 0.447,0.023 0.895,0.06 1.341,0.092 -0.001,0.002 -0.004,0.005 -0.005,0.007 0.002,-0.004 0.029,-0.003 0.042,-0.005 5.242,0.386 10.559,1.321 15.78,2.526 0.098,0.024 0.478,-0.022 0.42,-0.037 -5.25,-1.211 -10.456,-2.135 -15.697,-2.688 0.621,-0.886 1.777,-1.814 2.886,-2.276 -1.417,0.452 -2.589,1.327 -3.25,2.24 -0.802,-0.082 -1.602,-0.181 -2.405,-0.243 -3.081,-0.24 -5.889,-0.525 -9.01,-0.701 1.269,-1.924 2.27,-3 4.686,-3.095 0.453,-0.018 1.16,-0.023 1.869,-0.03 -3.953,-0.428 -5.549,0.777 -7.047,3.093 0.001,-0.001 0.003,0.004 0.004,0.004 -0.203,-0.011 -0.393,-0.025 -0.599,-0.035 -2.639,-0.122 -4.815,0.191 -7.269,0.828 1.916,-1.709 4.116,-3.753 6.884,-6.465 2.335,-2.289 4.797,-5.85 8.005,-9.104 0.22,-0.223 0.444,-0.447 0.665,-0.671 0.949,0.164 2.945,0.868 3.877,1.787 1.004,0.992 4.946,4.224 4.946,4.224 0,0 -2.371,-2.258 -4.328,-4.023 -1.594,-1.438 -3.532,-2.087 -4.203,-2.28 0.279,-0.282 0.558,-0.564 0.839,-0.847 1.867,-0.373 4.229,-0.229 5.936,0.13 1.528,0.32 3.056,0.684 4.596,0.881 4.038,0.516 8.28,0.274 12.271,0.072 0.342,-0.017 0.023,-0.073 -0.137,-0.064 -4.832,0.243 -9.562,0.103 -14.4,-0.815 0.457,-0.285 1.119,-0.694 1.465,-0.881 1.748,-0.943 3.922,-0.32 3.922,-0.32 0,0 -1.099,-0.534 -2.743,-0.245 -1.318,0.23 -2.572,1.079 -2.985,1.381 -0.248,-0.05 -0.494,-0.09 -0.742,-0.144 -1.886,-0.404 -4.276,-0.925 -6.38,-0.794 2.393,-2.39 4.803,-4.756 7.068,-6.957 1.835,-1.004 3.182,-1.399 5.25,-0.458 0.412,0.188 1.045,0.5 1.678,0.812 -2.55,-1.653 -4.308,-1.818 -6.073,-1.183 1.353,-1.31 2.629,-2.538 3.813,-3.672 l -0.032,0.094 c 0,0 1.617,-0.368 2.248,-0.465 1.97,-0.302 3.8,1.014 3.8,1.014 0,0 -0.851,-0.871 -2.497,-1.151 -1.342,-0.229 -2.841,0.168 -3.307,0.308 3.633,-3.475 6.246,-5.915 6.614,-6.242 0.23,-0.206 -2.16,1.54 -3.426,2.676 -0.45,0.403 -2.047,1.778 -4.233,3.692 -0.076,-0.932 -0.249,-3.426 0.065,-3.913 0.391,-0.603 0.931,-2.132 0.931,-2.132 0,0 -1.039,1.876 -1.223,2.519 -0.323,1.145 -0.106,3.128 -0.026,3.748 -3.871,3.39 -9.473,8.372 -14.015,12.789 0.712,-3.462 0.78,-7.089 1.622,-10.521 0.083,-0.343 0.189,-0.674 0.291,-1.008 0.613,-0.143 1.709,-0.847 2.6,-1.478 -1.212,0.716 -2.427,1.095 -2.427,1.095 l -0.087,0.085 c 1.121,-3.465 3.126,-6.532 4.502,-9.877 -0.008,0.02 -1.376,2.438 -1.419,2.539 -1.501,3.651 -2.748,4.417 -3.85,8.26 -1.075,3.744 -1.285,8.065 -2.208,11.911 -0.663,0.688 -1.312,1.394 -1.938,2.121 -0.18,-0.755 -0.915,-3.936 -0.825,-5.29 0.101,-1.543 0.437,-3.676 0.437,-3.676 0,0 -1.021,4.25 -0.813,4.946 0.208,0.697 0.736,4.504 0.736,4.504 l 0.115,-0.072 c -1.599,1.878 -3.148,3.806 -4.906,5.528 -0.953,0.934 -1.883,1.814 -2.798,2.664 -0.12,-2.633 0.044,-5.272 -0.031,-7.897 -0.036,-1.301 -0.14,-2.606 -0.273,-3.914 0.421,-0.516 0.911,-1.57 1.292,-2.483 -0.494,0.955 -1.084,1.729 -1.339,2.039 -0.136,-1.277 -0.296,-2.558 -0.453,-3.831 -0.164,-1.351 -0.435,-2.721 -0.65,-4.083 3.614,-2.649 3.862,-5.24 3.862,-5.24 -0.387,2.383 -3.524,4.555 -3.929,4.827 C 53.11,22.914 53.044,22.409 53,21.909 c -0.224,-2.496 0.379,-4.543 0.378,-5.39 -0.005,-0.846 -0.335,-2.139 -0.328,-2.107 0.255,1.107 -0.019,2.318 -0.159,3.388 -0.171,1.296 -0.403,2.594 -0.392,3.919 0.007,0.692 0.253,1.444 0.362,2.143 0.074,0.479 0.127,0.959 0.194,1.439 -0.146,-0.09 -1.091,-0.677 -1.595,-1.174 -0.548,-0.543 -1.271,-1.091 -1.694,-1.755 -0.422,-0.665 -1.336,-1.565 -1.336,-1.565 0,0 1.539,2.177 1.768,2.402 0.229,0.225 1.461,1.442 1.866,1.676 0.249,0.145 0.709,0.433 1.02,0.629 0.109,0.802 0.226,1.603 0.324,2.405 0.325,2.61 0.557,5.449 0.659,8.059 0.075,1.927 -0.012,3.888 -0.037,5.843 -0.426,-0.296 -1.454,-1.127 -2.893,-3.04 -1.062,-1.411 -1.961,-2.592 -2.584,-3.437 0.726,-0.766 1.222,-3.745 1.222,-3.745 -0.45,1.924 -1.266,3.321 -1.266,3.321 l -0.065,0.275 c -0.441,-0.602 -0.727,-1.015 -0.782,-1.158 -0.132,-0.35 -1.593,-2.996 -1.593,-2.996 0,0 1.264,2.566 2.321,4.384 l -0.014,0.062 c 0.012,-0.006 0.023,-0.019 0.035,-0.025 0.363,0.623 0.702,1.156 0.954,1.461 0.985,1.191 3.026,3.863 3.453,4.285 0.331,0.324 0.945,0.867 1.207,1.097 -0.003,0.76 0.019,1.517 0.058,2.273 -5.739,5.261 -10.853,9.135 -16.526,14.28 -0.115,-1.596 -0.431,-3.187 -0.7,-4.785 -0.14,-0.823 -0.268,-1.506 -0.387,-2.171 l 0.08,0.194 c 0,0 0.749,-4.991 1.367,-6.412 0.62,-1.419 1.66,-3.32 1.66,-3.32 0,0 -2.403,3.67 -2.445,4.395 -0.031,0.563 -0.619,2.859 -0.879,3.855 -0.073,-0.475 -0.142,-0.973 -0.207,-1.538 -0.412,-3.601 -0.875,-6.529 -3.077,-9.854 -0.079,-0.119 -1.172,-1.104 -1.215,-1.148 2.082,2.135 2.995,4.818 3.503,7.555 -0.325,-0.142 -1.534,-0.669 -2.023,-0.92 -1.771,-0.907 -2.253,-2.789 -2.253,-2.789 0,0 0.035,1.043 1.126,2.148 1.067,1.08 2.99,1.711 2.99,1.711 l 0.171,-0.08 c 0.16,0.875 0.281,1.752 0.385,2.619 0.21,1.772 0.372,3.541 0.64,5.312 0.281,1.859 0.565,3.881 0.631,5.805 -1.166,1.069 -2.355,2.19 -3.582,3.398 -2.274,2.237 -4.857,4.838 -7.542,7.553 -0.219,-1.042 -0.85,-4.128 -0.991,-5.623 -0.133,-1.391 -0.751,-4.847 -0.751,-4.847 0,0 0.318,6.688 1.397,10.818 -1.266,1.281 -2.551,2.583 -3.838,3.886 -0.361,-0.972 -0.853,-2.411 -0.939,-3.257 -0.106,-1.044 -0.12,-4.39 -0.12,-4.39 -0.176,1.126 -0.829,3.207 0.621,8.092 -2.023,2.047 -4.036,4.081 -5.965,6.012 -0.022,-0.054 -0.049,-0.107 -0.07,-0.162 -0.387,-0.982 -0.496,-2.045 -0.541,-3.061 -0.114,-2.502 0.399,-4.984 0.975,-7.343 0.56,-2.293 1.292,-4.529 2.095,-6.728 0.666,-1.825 1.294,-3.736 2.186,-5.447 0.495,-0.948 1.199,-1.968 2.329,-2.21 1.409,-0.303 2.664,1.816 3.374,2.774 0.209,0.282 1.268,1.111 1.634,0.912 7.354,-4.025 0.203,-13.589 -0.743,-19.609 -0.31,-1.963 0.4,-3.621 1.388,-5.178 0.758,-1.195 1.937,-2.311 3.532,-2.159 1.204,0.113 2.213,1.085 3.078,1.887 1.035,0.961 1.983,2.011 3.017,2.977 0.853,0.795 1.904,1.662 3.049,1.91 2.011,0.437 2.723,-2.703 2.944,-4.03 0.51,-3.037 0.033,-6.328 0.911,-9.284 0.831,-2.8 1.309,-5.304 1.71,-8.22 0.399,-2.893 1.321,-6.021 3.38,-8.084 1.093,-1.093 1.579,-0.653 3.138,-0.895 0.717,-0.109 3.313,1.027 3.738,1.624 1.241,1.736 3.17,3.582 5.389,3.688 2.15,0.101 3.728,-2.269 4.8,-3.706 1.199,-1.604 2.397,-3.477 4.26,-4.409 1.997,-1.001 3.374,2.139 4.456,3.466 1.228,1.512 3.384,2.626 5.277,2.445 1.124,-0.107 1.979,-0.78 2.938,-1.249 1.278,-0.627 2.815,-0.568 4.219,-0.019 1.282,0.502 1.59,2.259 1.625,3.385 0.056,1.705 -0.493,3.385 -1.033,4.932 -0.526,1.514 -1.177,2.979 -1.747,4.475 -0.283,0.742 -0.851,1.882 -0.529,2.746 0.01,0.028 0.039,0.055 0.058,0.083 0.004,0.008 -0.003,0.01 0.003,0.021 0.552,0.893 1.455,1.481 2.382,1.934 1.11,0.543 3.101,0.619 3.882,1.62 1.83,2.346 0.435,4.288 -1.417,5.659 z" /><path
       inkscape:connector-curvature="0"
       style="fill:#d38d5f;stroke:none;stroke-opacity:1"
       id="path4182"
       d="m 75.839,46.608 c -0.386,-0.003 -0.821,0.114 -1.267,0.299 0.51,-0.162 1.053,-0.258 1.607,-0.293 -0.124,-0.003 -0.241,-0.005 -0.34,-0.006 z" /><path
       inkscape:connector-curvature="0"
       style="fill:#d38d5f;stroke:none;stroke-opacity:1"
       id="path4184"
       d="m 76.18,46.614 c 0.365,0.009 0.821,0.026 1.277,0.042 C 77.024,46.59 76.6,46.589 76.18,46.614 Z" /><path
       inkscape:connector-curvature="0"
       style="fill:#d38d5f;stroke:none;stroke-opacity:1"
       id="path4186"
       d="m 70.186,19.261 c 0.496,-0.292 0.99,-0.635 1.4,-1.04 0,0 -0.622,0.49 -1.4,1.04 z" /><path
       inkscape:connector-curvature="0"
       style="fill:#d38d5f;stroke:none;stroke-opacity:1"
       id="path4188"
       d="m 55.692,29.704 c 0.263,-0.507 0.498,-1.056 0.628,-1.613 0,0 -0.262,0.74 -0.628,1.613 z" /><path
       inkscape:connector-curvature="0"
       style="fill:#d38d5f;stroke:none;stroke-opacity:1"
       id="path4190"
       d="m 43.158,66.464 c 0.319,0.475 0.689,0.944 1.119,1.331 0,0 -0.526,-0.59 -1.119,-1.331 z" /><path
       inkscape:connector-curvature="0"
       style="fill:#d38d5f;stroke:none;stroke-opacity:1"
       id="path4192"
       d="m 29.55,76.408 c 0.341,0.331 0.724,0.651 1.139,0.893 0,0 -0.529,-0.391 -1.139,-0.893 z" /></g></svg>