<?xml version="1.0" encoding="UTF-8" standalone="no"?>
<svg
   xmlns:dc="http://purl.org/dc/elements/1.1/"
   xmlns:cc="http://creativecommons.org/ns#"
   xmlns:rdf="http://www.w3.org/1999/02/22-rdf-syntax-ns#"
   xmlns:svg="http://www.w3.org/2000/svg"
   xmlns="http://www.w3.org/2000/svg"
   xmlns:sodipodi="http://sodipodi.sourceforge.net/DTD/sodipodi-0.dtd"
   xmlns:inkscape="http://www.inkscape.org/namespaces/inkscape"
   version="1.1"
   x="0px"
   y="0px"
   viewBox="0 0 100 100"
   enable-background="new 0 0 100 100"
   xml:space="preserve"
   id="svg2"
   inkscape:version="0.91 r13725"
   sodipodi:docname="pie.svg"
   width="100"
   height="100"><metadata
     id="metadata14"><rdf:RDF><cc:Work
         rdf:about=""><dc:format>image/svg+xml</dc:format><dc:type
           rdf:resource="http://purl.org/dc/dcmitype/StillImage" /><dc:title></dc:title></cc:Work></rdf:RDF></metadata><defs
     id="defs12" /><sodipodi:namedview
     pagecolor="#ffffff"
     bordercolor="#666666"
     borderopacity="1"
     objecttolerance="10"
     gridtolerance="10"
     guidetolerance="10"
     inkscape:pageopacity="0"
     inkscape:pageshadow="2"
     inkscape:window-width="2108"
     inkscape:window-height="1332"
     id="namedview10"
     showgrid="false"
     inkscape:zoom="3.8583955"
     inkscape:cx="-9.4949844"
     inkscape:cy="62.5"
     inkscape:window-x="0"
     inkscape:window-y="0"
     inkscape:window-maximized="0"
     inkscape:current-layer="svg2" /><path
     d="m 90.580124,41.174159 c -0.003,-0.083 -0.016,-0.163 -0.038,-0.243 -0.013,-0.041 -0.022,-0.08 -0.039,-0.119 -0.032,-0.074 -0.077,-0.142 -0.127,-0.207 -0.024,-0.03 -0.042,-0.064 -0.068,-0.093 -0.008,-0.008 -0.012,-0.018 -0.02,-0.025 l -29.903,-28.937 c -0.182,-0.71 -0.672,-2.829 -0.672,-4.912 l 0,-0.229 c 0.003,-1.724 0.005,-3.506 -1.271,-4.454 -0.927,-0.688 -2.251,-0.738 -4.162,-0.158 -2.04,0.618 -2.589,0.612 -3.214,0.604 -0.708,-0.008 -1.503,-0.019 -3.781,0.584 -1.822,0.482 -2.972,1.202 -3.986,1.836 -1.543,0.964 -2.762,1.728 -6.12,1.46 -3.411,-0.267 -4.973,0.836 -6.486,1.904 -1.309,0.924 -2.545,1.797 -5.274,1.854 -5.713,0.118 -7.839,1.967 -9.548,3.453 -0.257,0.224 -0.509,0.443 -0.768,0.65 -1.636,1.31 -4.779,1.333 -4.811,1.333 -0.032,0 -0.058,0.015 -0.089,0.018 -0.031,0.003 -0.061,-0.007 -0.092,-0.001 -0.5579999,0.103 -3.3849995,0.709 -4.1949995,2.536 -0.252,0.569 -0.406,1.481 0.288,2.604 0.429,0.694 0.915,1.303 1.3849996,1.892 1.436,1.803 3.0639999,3.845 3.9149999,9.509 1.152,7.675 2.829,19.804996 2.846,19.925996 0.06,0.429 0.388,0.771 0.813,0.848 l 73.282,13.206 c 0.06,0.011 0.119,0.016 0.178,0.016 0.226,0 0.447,-0.076 0.626,-0.22 0.226,-0.181 0.361,-0.451 0.373,-0.739 l 0.97,-23.822996 c 0.001,-0.026 -0.011,-0.047 -0.012,-0.073 z m -2.772,19.303996 -66.656,-12.747 -1.708,-17.869996 68.979,15.510996 -0.615,15.106 z m -28.581,-47.263996 27.054,26.179 -66.044,-15.654 c 1.202,-0.935 2.708,-1.178 5.557,-1.639 1.334,-0.215 2.994,-0.483 4.977,-0.896 3.385,-0.702 5.583,-1.876 7.708,-3.013 2.698,-1.443 5.248,-2.806 10.21,-3.176 5.559,-0.412 9.175,-1.379 10.538,-1.801 z m -42.995,37.752996 c -0.379,-2.729 -1.758,-12.624996 -2.75,-19.230996 -0.93,-6.194 -2.814,-8.559 -4.3289999,-10.458 -0.453,-0.569 -0.881,-1.106 -1.248,-1.698 -0.284,-0.459 -0.195,-0.663 -0.161,-0.739 0.278,-0.631 1.726,-1.177 2.6629999,-1.366 0.646,-0.013 3.936,-0.161 5.945,-1.769 0.28,-0.224 0.553,-0.461 0.831,-0.703 1.617,-1.406 3.288,-2.86 8.277,-2.962 3.341,-0.071 4.958,-1.212 6.386,-2.22 1.39,-0.981 2.485,-1.757 5.175,-1.544 4.023,0.317 5.706,-0.738 7.337,-1.759 0.938,-0.587 1.908,-1.193 3.438,-1.598 2.013,-0.533 2.635,-0.525 3.245,-0.518 0.759,0.007 1.48,0.018 3.818,-0.69 1.66,-0.502 2.224,-0.273 2.39,-0.151 0.468,0.347 0.466,1.675 0.464,2.846 l 0,0.232 c 0,1.862 0.339,3.695 0.579,4.765 -1.474,0.426 -4.828,1.252 -9.752,1.618 -5.385,0.401 -8.242,1.929 -11.005,3.407 -2.092,1.119 -4.068,2.176 -7.17,2.819 -1.94,0.403 -3.507,0.656 -4.889,0.879 -3.866,0.625 -5.996,0.969 -7.958,3.585 -0.202,0.27 -0.255,0.624 -0.14,0.94 0.115,0.316 0.382,0.555 0.71,0.633 l 70.473,16.703 -0.056,1.354 -69.968,-15.735 c -0.312,-0.07 -0.64,0.014 -0.88,0.226 -0.24,0.212 -0.365,0.526 -0.334,0.845 l 1.91,19.988996 c 0.042,0.442 0.372,0.804 0.808,0.888 l 67.686,12.944 -0.055,1.342 -71.44,-12.874 z"
     id="path4"
     inkscape:connector-curvature="0"
     style="fill:#d45500;fill-opacity:1" /></svg>