<?xml version="1.0" encoding="UTF-8" standalone="no"?>
<svg
   xmlns:dc="http://purl.org/dc/elements/1.1/"
   xmlns:cc="http://creativecommons.org/ns#"
   xmlns:rdf="http://www.w3.org/1999/02/22-rdf-syntax-ns#"
   xmlns:svg="http://www.w3.org/2000/svg"
   xmlns="http://www.w3.org/2000/svg"
   xmlns:sodipodi="http://sodipodi.sourceforge.net/DTD/sodipodi-0.dtd"
   xmlns:inkscape="http://www.inkscape.org/namespaces/inkscape"
   version="1.1"
   x="0px"
   y="0px"
   viewBox="798.25 -145.25 70 60"
   enable-background="new 798.25 -145.25 90 90"
   xml:space="preserve"
   id="svg2"
   inkscape:version="0.91 r13725"
   sodipodi:docname="turkey.svg"
   width="70"
   height="60"><metadata
     id="metadata26"><rdf:RDF><cc:Work
         rdf:about=""><dc:format>image/svg+xml</dc:format><dc:type
           rdf:resource="http://purl.org/dc/dcmitype/StillImage" /><dc:title /></cc:Work></rdf:RDF></metadata><defs
     id="defs24" /><sodipodi:namedview
     pagecolor="#ffffff"
     bordercolor="#666666"
     borderopacity="1"
     objecttolerance="10"
     gridtolerance="10"
     guidetolerance="10"
     inkscape:pageopacity="0"
     inkscape:pageshadow="2"
     inkscape:window-width="2041"
     inkscape:window-height="1260"
     id="namedview22"
     showgrid="false"
     inkscape:zoom="7.6394163"
     inkscape:cx="33.57375"
     inkscape:cy="35.103945"
     inkscape:window-x="0"
     inkscape:window-y="0"
     inkscape:window-maximized="0"
     inkscape:current-layer="svg2" /><g
     id="g4154"
     style="fill:#f7a92c;fill-opacity:1"
     transform="translate(0,2)"><circle
       style="fill:#f7a92c;fill-opacity:1"
       id="circle4"
       r="1.252"
       cy="-112.7211"
       cx="819.74792" /><circle
       style="fill:#f7a92c;fill-opacity:1"
       id="circle6"
       r="1.252"
       cy="-111.50209"
       cx="814.37695" /><circle
       style="fill:#f7a92c;fill-opacity:1"
       id="circle8"
       r="1.252"
       cy="-107.35509"
       cx="819.01495" /><path
       inkscape:connector-curvature="0"
       style="fill:#f7a92c;fill-opacity:1"
       id="path10"
       d="m 859.81597,-129.8921 c -0.995,-0.757 -2.245,-1.084 -3.472,-0.928 -0.168,-1.206 -0.797,-2.329 -1.807,-3.098 -0.834,-0.64 -1.83,-0.975 -2.88,-0.975 -1.489,0 -2.866,0.677 -3.771,1.861 -1.592,2.078 -1.191,5.057 0.889,6.646 0.045,0.034 0.088,0.066 0.133,0.097 l -4.312,5.635 c -3.325,-1.711 -7.263,-2.842 -12.036,-3.448 -6.763,-0.858 -13.77,0.815 -19.224,4.602 -4.682,3.249 -7.829,8.918 -7.829,14.104 0,4.082 1.883,7.568 5.364,10.074 l -1.296,0 c -1.751,0 -3.175,1.423 -3.175,3.171 l 0,0.244 c 0,1.749 1.424,3.17 3.175,3.17 l 46.267,0 c 1.748,0 3.174,-1.422 3.174,-3.17 l 0,-0.244 c 0,-1.41 -0.928,-2.607 -2.203,-3.018 1.271,-1.135 2.203,-2.739 2.203,-5.126 0,-4.505 -4.938,-12.376 -9.409,-16.522 l 4.315,-5.641 c 0.042,0.033 0.084,0.067 0.128,0.101 0.836,0.638 1.831,0.975 2.88,0.975 1.493,0 2.867,-0.679 3.775,-1.863 0.767,-1.006 1.098,-2.251 0.932,-3.506 -0.168,-1.257 -0.814,-2.37 -1.821,-3.141 z m -3.241,37.984 c 0,0.404 -0.328,0.731 -0.732,0.731 l -46.267,0 c -0.405,0 -0.733,-0.328 -0.733,-0.731 l 0,-0.244 c 0,-0.404 0.328,-0.732 0.733,-0.732 l 46.267,0 c 0.404,0 0.732,0.328 0.732,0.732 l 0,0.244 z m 0,-8.387 c 0,2.275 -1.124,3.628 -4.01,4.823 -0.094,0.039 -0.18,0.091 -0.258,0.149 l -36.916,0 c -0.121,-0.209 -0.307,-0.386 -0.541,-0.496 -3.148,-1.458 -6.901,-4.302 -6.901,-9.578 0,-4.353 2.79,-9.331 6.783,-12.1 4.962,-3.445 11.352,-4.971 17.521,-4.187 3.12,0.397 5.837,1.029 8.242,1.903 -3.663,0.794 -7.279,3.211 -9.079,5.565 -3.252,4.252 -2.435,10.356 1.819,13.604 1.708,1.306 3.748,1.996 5.893,1.996 3.057,0 5.874,-1.391 7.725,-3.813 1.993,-2.602 3.258,-6.992 2.934,-10.711 3.653,4.135 6.788,9.894 6.788,12.845 z m 2.187,-24.433 c -0.747,0.979 -2.244,1.184 -3.229,0.432 -0.234,-0.181 -0.436,-0.415 -0.596,-0.7 -0.199,-0.36 -0.566,-0.593 -0.977,-0.624 -0.414,-0.032 -0.811,0.149 -1.059,0.476 l -6.211,8.119 c -0.299,0.389 -0.333,0.917 -0.094,1.342 1.729,3.042 0.493,8.928 -1.684,11.772 -1.389,1.814 -3.496,2.855 -5.787,2.855 -1.605,0 -3.13,-0.519 -4.409,-1.495 -3.188,-2.432 -3.799,-7 -1.362,-10.184 1.802,-2.357 6.064,-4.88 9.531,-4.88 0.504,0 0.973,0.056 1.396,0.164 0.476,0.122 0.977,-0.051 1.27,-0.442 l 6.214,-8.118 c 0.252,-0.327 0.319,-0.757 0.183,-1.145 -0.136,-0.388 -0.459,-0.681 -0.858,-0.78 -0.317,-0.078 -0.596,-0.208 -0.835,-0.389 -1.009,-0.771 -1.201,-2.217 -0.43,-3.226 0.747,-0.977 2.246,-1.183 3.229,-0.431 0.774,0.591 1.084,1.619 0.772,2.555 -0.165,0.492 0.002,1.039 0.416,1.354 0.415,0.317 0.984,0.334 1.417,0.046 0.806,-0.536 1.903,-0.513 2.671,0.073 0.488,0.374 0.804,0.913 0.883,1.523 0.087,0.61 -0.075,1.215 -0.451,1.703 z" /><path
       inkscape:connector-curvature="0"
       style="fill:#f7a92c;fill-opacity:1"
       id="path12"
       d="m 823.00497,-127.2741 c 0,0.673 0.542,1.253 1.216,1.253 0.674,0 1.221,-0.511 1.221,-1.185 0.02,-0.132 0.088,-0.305 0.161,-0.515 0.381,-1.118 1.092,-3.199 -0.044,-5.464 -0.913,-1.83 -0.015,-3.752 0.005,-3.794 0.298,-0.601 0.052,-1.33 -0.549,-1.628 -0.604,-0.304 -1.336,-0.058 -1.639,0.544 -0.062,0.122 -1.475,3.018 0,5.969 0.679,1.353 0.234,2.644 -0.087,3.586 -0.158,0.472 -0.284,0.843 -0.284,1.234 z" /><path
       inkscape:connector-curvature="0"
       style="fill:#f7a92c;fill-opacity:1"
       id="path14"
       d="m 828.86397,-127.2741 c 0,0.673 0.542,1.253 1.217,1.253 0.674,0 1.22,-0.511 1.22,-1.185 0.021,-0.132 0.088,-0.305 0.161,-0.515 0.381,-1.118 1.093,-3.199 -0.043,-5.464 -0.914,-1.83 -0.016,-3.752 0.004,-3.794 0.298,-0.601 0.052,-1.33 -0.549,-1.628 -0.604,-0.304 -1.336,-0.058 -1.639,0.544 -0.061,0.122 -1.475,3.018 0,5.969 0.679,1.353 0.235,2.644 -0.088,3.586 -0.156,0.472 -0.283,0.843 -0.283,1.234 z" /><path
       inkscape:connector-curvature="0"
       style="fill:#f7a92c;fill-opacity:1"
       id="path16"
       d="m 837.89297,-114.5541 c -1.545,0.82 -2.638,2.253 -3.072,4.037 -0.42,1.732 -0.171,3.595 0.707,5.246 0.218,0.413 0.641,0.648 1.079,0.648 0.192,0 0.388,-0.045 0.571,-0.143 0.596,-0.316 0.822,-1.055 0.504,-1.648 -0.596,-1.123 -0.768,-2.375 -0.488,-3.525 0.27,-1.098 0.924,-1.97 1.843,-2.459 0.599,-0.315 0.823,-1.053 0.508,-1.649 -0.319,-0.598 -1.056,-0.822 -1.652,-0.507 z" /></g></svg>